<svg xmlns="http://www.w3.org/2000/svg" width="922.742" height="193.641" viewBox="0 0 922.742 193.641"><g transform="translate(145.099 0)" style="isolation:isolate"><g style="isolation:isolate"><path d="M1569.954,756.181v103.8h-30.149V844.806c-7.487,10.724-17.4,17.4-32.577,17.4-31.565,0-50.585-24.282-50.585-54.632,0-29.137,17.6-53.621,49.979-53.621a41.568,41.568,0,0,1,33.184,16.39V756.181ZM1513.5,837.724c14.771,0,27.114-9.509,27.114-28.327,0-19.222-11.534-30.958-27.923-30.958-16.592,0-25.9,13.355-25.9,29.34C1486.791,824.37,1496.909,837.724,1513.5,837.724Z" transform="translate(-1456.642 -713.689)" fill="#33405d"/><path d="M1789.723,687.489V833.782h-30.149V818.606c-7.486,10.724-17.4,17.4-32.577,17.4-31.565,0-50.585-24.282-50.585-54.632,0-29.137,17.6-53.621,49.978-53.621a41.567,41.567,0,0,1,33.184,16.39V687.489ZM1733.27,811.524c14.77,0,27.114-9.509,27.114-28.327,0-19.223-11.534-30.958-27.923-30.958-16.592,0-25.9,13.355-25.9,29.34C1706.561,798.17,1716.677,811.524,1733.27,811.524Z" transform="translate(-1543.272 -687.489)" fill="#33405d"/><path d="M1972.2,757.629h33.185L1938.2,908.778h-30.351l23.674-56.049-42.694-95.1h33.993l24.686,64.952Z" transform="translate(-1627.006 -715.137)" fill="#33405d"/><path d="M2105.261,756.181h30.148v14.164c8.7-12.141,19.628-16.39,32.173-16.39,29.137,0,37.029,23.269,37.029,49.574v56.453h-30.149V804.136c0-14.366-5.261-25.293-19.222-25.293s-19.831,11.129-19.831,25.495v55.644h-30.148Z" transform="translate(-1712.319 -713.689)" fill="#33405d"/><path d="M2357.384,753.955c10.724,0,24.686,2.226,42.492,15.378l-13.759,22.055a41.505,41.505,0,0,0-27.316-10.319c-17.6,0-29.34,11.129-29.34,26.912s11.736,26.911,29.34,26.911a41.5,41.5,0,0,0,27.316-10.319l13.759,22.055c-17.806,13.152-31.768,15.378-42.492,15.378-35.612,0-58.071-23.27-58.071-54.025S2321.772,753.955,2357.384,753.955Z" transform="translate(-1788.811 -713.689)" fill="#33405d"/><path d="M2588.185,841.771c-14.77,16.187-34.4,20.437-48.36,20.437-38.445,0-59.488-24.079-59.488-53.621,0-30.554,23.876-54.632,57.262-54.632,28.733,0,56.251,19.83,56.251,61.107h-83.566c.607,12.95,12.545,22.459,31.767,22.459,10.724,0,21.448-5.463,28.733-12.343Zm-77.294-44.92h52c-2.023-13.355-15.58-18.413-25.7-18.413C2527.483,778.438,2514.533,782.89,2510.891,796.851Z" transform="translate(-1860.168 -713.689)" fill="#33405d"/><ellipse cx="17.457" cy="17.345" rx="17.457" ry="17.345" transform="translate(742.728 113.825)" fill="#5f84fc"/></g></g><path d="M1338.907,779.85a45.448,45.448,0,1,1,.1-53.578l13.919-26.4a73.23,73.23,0,0,0-36.683-18.97V662.778h-27.977v18.127a73.347,73.347,0,0,0-41.534,24.042l-15.61-9.013-13.989,24.228,15.644,9.032a73.716,73.716,0,0,0,.1,47.867l-15.74,9.086,13.989,24.229,15.8-9.124a73.345,73.345,0,0,0,41.343,23.826v18.127h27.977V825.078a73.221,73.221,0,0,0,36.568-18.863Z" transform="translate(-1217.132 -662.778)" fill="#33405d"/></svg>